#!OML:ASF I:\golf\golf\golf 2\Subject 1\2002-09-07\Subject1.ASF
:FULLY-SPECIFIED
:DEGREES
107
root 1.63992 17.9017 -9.07545 9.47341 -4.88668 -6.2699
lowerback -4.06387 1.32531 -3.13603
upperback 1.25025 1.80572 4.09726
thorax 3.34755 0.790829 6.15612
lowerneck -14.9169 0.663496 1.00189
upperneck 41.3623 3.62531 -6.79156
head 18.1517 0.67409 -2.68178
rclavicle 1.41634e-014 2.64384e-014
rhumerus -27.6354 1.24902 -84.296
rradius 27.2638
rwrist -7.97513
rhand -19.902 11.1745
rfingers 7.12502
rthumb 6.43438 -18.7078
lclavicle 1.41634e-014 2.64384e-014
lhumerus -26.6001 -2.32455 90.4086
lradius 24.3401
lwrist 0.126668
lhand -8.00228 32.4256
lfingers 7.12502
lthumb 17.9066 61.6212
rfemur -20.2266 -0.879501 22.6263
rtibia 33.9013
rfoot -14.9036 -6.99609
rtoes 1.62151
lfemur -17.023 3.80883 -16.8963
ltibia 32.7579
lfoot -20.1185 5.36348
ltoes -1.90671
108
root 1.65415 17.8949 -9.07339 9.45149 -4.87302 -6.10253
lowerback -4.03067 1.3584 -3.25645
upperback 1.34364 1.8582 3.99311
thorax 3.4188 0.811587 6.11939
lowerneck -14.926 0.646656 0.987872
upperneck 41.3781 3.58759 -6.74484
head 18.1586 0.663476 -2.6648
rclavicle -8.34896e-015 -1.27222e-014
rhumerus -27.4646 1.14742 -84.2841
rradius 27.3296
rwrist -7.5322
rhand -19.7909 10.4518
rfingers 7.12502
rthumb 6.54163 -19.4272
lclavicle -8.34896e-015 -1.27222e-014
lhumerus -26.5405 -2.49596 90.3487
lradius 24.4011
lwrist 0.289949
lhand -8.11361 32.3505
lfingers 7.12502
lthumb 17.7995 61.5559
rfemur -20.5033 -0.94401 22.3886
rtibia 34.417
rfoot -15.0309 -6.95367
rtoes 1.6021
lfemur -17.0116 4.0065 -17.1382
ltibia 32.7278
lfoot -20.1005 5.20131
ltoes -2.1898
109
root 1.66835 17.8875 -9.07013 9.37169 -4.8549 -5.8589
lowerback -3.9113 1.36241 -3.42506
upperback 1.41196 1.87392 3.87001
thorax 3.41922 0.815629 6.08401
lowerneck -14.8566 0.669219 0.960714
upperneck 41.3876 3.60526 -6.67811
head 18.1434 0.676689 -2.62438
rclavicle -1.68967e-015 3.02153e-014
rhumerus -27.4036 1.11579 -84.2987
rradius 27.4477
rwrist -7.07262
rhand -19.7673 9.78354
rfingers 7.12502
rthumb 6.56444 -20.0947
lclavicle -1.68967e-015 3.02153e-014
lhumerus -26.4792 -2.34165 90.1859
lradius 24.2937
lwrist 0.299329
lhand -8.67789 32.2002
lfingers 7.12502
lthumb 17.2565 61.454
rfemur -20.713 -0.983503 22.0553
rtibia 34.9464
rfoot -15.0671 -6.85883
rtoes 1.71069
lfemur -16.9263 4.08422 -17.4665
ltibia 32.6996
lfoot -20.0906 5.15326
ltoes -2.6884
110
root 1.67803 17.8818 -9.06944 9.3191 -4.73748 -5.77055
lowerback -3.70179 1.33124 -3.53484
upperback 1.42108 1.83495 3.84055
thorax 3.31315 0.797039 6.10597
lowerneck -14.7839 0.704564 0.926454
upperneck 41.4446 3.66742 -6.65532
head 18.1612 0.700263 -2.59788
rclavicle 1.61513e-014 3.47873e-014
rhumerus -27.4479 1.44047 -84.4271
rradius 27.5379
rwrist -7.51362
rhand -20.0846 10.2241
rfingers 7.12502
rthumb 6.25815 -19.6634
lclavicle 1.61513e-014 3.47873e-014
lhumerus -26.4871 -2.14428 90.0247
lradius 24.2967
lwrist -0.0135756
lhand -8.32626 32.3703
lfingers 7.12502
lthumb 17.5949 61.5941
rfemur -20.9298 -0.987335 21.9386
rtibia 35.4814
rfoot -15.014 -7.0155
rtoes 0.851697
lfemur -16.8993 4.16278 -17.5861
ltibia 32.6863
lfoot -20.1027 4.96789
ltoes -3.17937
111
root 1.68821 17.8785 -9.06881 9.25904 -4.63373 -5.67777
lowerback -3.5278 1.35239 -3.63674
upperback 1.47733 1.86614 3.78435
thorax 3.26801 0.811202 6.10177
lowerneck -14.755 0.693564 0.991422
upperneck 41.46 3.65405 -6.70894
head 18.1648 0.699323 -2.63825
rclavicle -3.00662e-015 -1.31198e-014
rhumerus -27.3702 1.37981 -84.444
rradius 27.5688
rwrist -7.4715
rhand -19.8413 10.4908
rfingers 7.12502
rthumb 6.49304 -19.3896
lclavicle -3.00662e-015 -1.31198e-014
lhumerus -26.4804 -2.38991 89.9825
lradius 24.3479
lwrist 0.201706
lhand -8.20285 32.3653
lfingers 7.12502
lthumb 17.7136 61.5785
rfemur -21.1575 -1.04646 21.8151
rtibia 36.0128
rfoot -14.9126 -7.20927
rtoes -0.482432
lfemur -16.8899 4.25176 -17.7147
ltibia 32.7128
lfoot -20.1992 4.75962
ltoes -3.18651
112
root 1.70128 17.8751 -9.06723 9.19831 -4.6172 -5.63167
lowerback -3.45418 1.43823 -3.6896
upperback 1.56606 1.98295 3.73118
thorax 3.30338 0.866065 6.08179
lowerneck -14.6787 0.628385 1.08872
upperneck 41.4648 3.55907 -6.79813
head 18.1444 0.667395 -2.71574
rclavicle -7.90169e-015 -3.89618e-014
rhumerus -27.2624 0.931244 -84.2756
rradius 27.6205
rwrist -6.61506
rhand -19.2448 10.5723
rfingers 7.12502
rthumb 7.06884 -19.2896
lclavicle -7.90169e-015 -3.89618e-014
lhumerus -26.4593 -2.69034 89.9994
lradius 24.3967
lwrist 0.477919
lhand -8.51809 32.5397
lfingers 7.12502
lthumb 17.4103 61.7799
rfemur -21.3924 -1.09998 21.7163
rtibia 36.5311
rfoot -14.7864 -7.19813
rtoes -1.21557
lfemur -16.8724 4.21258 -17.8128
ltibia 32.7847
lfoot -20.2912 4.78858
ltoes -3.21206
113
root 1.71478 17.8694 -9.06497 9.15539 -4.57216 -5.67882
lowerback -3.4714 1.47336 -3.74981
upperback 1.662 2.03038 3.7999
thorax 3.40259 0.882491 6.19513
lowerneck -14.5237 0.587403 1.05674
upperneck 41.4494 3.54632 -6.89387
head 18.0955 0.648114 -2.75513
rclavicle 1.83876e-015 1.03368e-014
rhumerus -27.2171 0.978317 -84.1407
rradius 27.7541
rwrist -6.39886
rhand -19.1031 10.7188
rfingers 7.12502
rthumb 7.20564 -19.1386
lclavicle 1.83876e-015 1.03368e-014
lhumerus -26.3838 -2.40928 89.9705
lradius 24.4446
lwrist 0.00390771
lhand -8.05347 32.9377
lfingers 7.12502
lthumb 17.8574 62.1378
rfemur -21.6313 -1.15383 21.7379
rtibia 37.0554
rfoot -14.6426 -7.18687
rtoes -2.03606
lfemur -16.861 4.10279 -17.8059
ltibia 32.8727
lfoot -20.2914 4.9194
ltoes -3.95129
114
root 1.73024 17.867 -9.06407 9.19079 -4.54291 -5.77486
lowerback -3.32792 1.48561 -3.5376
upperback 1.63907 2.03476 3.75461
thorax 3.30507 0.893448 6.01942
lowerneck -14.4023 0.638247 1.13146
upperneck 41.4763 3.62516 -6.94844
head 18.0881 0.686343 -2.78048
rclavicle -3.96824e-014 -5.84427e-014
rhumerus -27.346 1.28946 -84.3199
rradius 27.9887
rwrist -6.65378
rhand -19.0902 10.2403
rfingers 7.12502
rthumb 7.21812 -19.6166
lclavicle -3.96824e-014 -5.84427e-014
lhumerus -26.4598 -2.33625 89.8008
lradius 24.4743
lwrist 0.00469335
lhand -7.89149 32.9484
lfingers 7.12502
lthumb 18.0132 62.1342
rfemur -21.9786 -1.10456 21.7821
rtibia 37.6155
rfoot -14.5396 -7.1228
rtoes -1.91434
lfemur -16.9378 4.04795 -17.7607
ltibia 32.9512
lfoot -20.2858 4.94575
ltoes -4.03356
115
root 1.74517 17.8647 -9.0636 9.27841 -4.55947 -5.8428
lowerback -3.22216 1.51034 -3.36774
upperback 1.6427 2.05891 3.70926
thorax 3.25282 0.911219 5.87144
lowerneck -14.4122 0.683607 1.20739
upperneck 41.5147 3.70713 -7.0247
head 18.125 0.720962 -2.81785
rclavicle -8.07563e-015 1.78906e-015
rhumerus -27.3436 1.54976 -84.4346
rradius 28.15
rwrist -6.80744
rhand -19.0316 9.95034
rfingers 7.12502
rthumb 7.27462 -19.9046
lclavicle -8.07563e-015 1.78906e-015
lhumerus -26.4252 -2.28022 89.6711
lradius 24.3214
lwrist 0.363065
lhand -8.58775 32.4073
lfingers 7.12502
lthumb 17.3432 61.6535
rfemur -22.4179 -0.977813 21.7814
rtibia 38.2264
rfoot -14.5456 -7.00585
rtoes -0.422888
lfemur -17.0753 4.04752 -17.7548
ltibia 32.999
lfoot -20.2735 4.99775
ltoes -3.9672
116
root 1.75416 17.8616 -9.05928 9.2643 -4.4828 -5.77904
lowerback -3.06359 1.52791 -3.4592
upperback 1.68829 2.08409 3.68042
thorax 3.20546 0.922559 5.88965
lowerneck -14.4649 0.684947 1.25272
upperneck 41.5922 3.72489 -7.07644
head 18.1907 0.727948 -2.85249
rclavicle 1.25731e-014 1.43125e-014
rhumerus -27.2598 1.5909 -84.4122
rradius 28.1965
rwrist -6.81962
rhand -19.1765 10.5865
rfingers 7.12502
rthumb 7.13478 -19.2733
lclavicle 1.25731e-014 1.43125e-014
lhumerus -26.2969 -2.12139 89.5599
lradius 24.2177
lwrist 0.298137
lhand -8.76841 32.296
lfingers 7.12502
lthumb 17.1694 61.5574
rfemur -22.7595 -0.961172 21.7025
rtibia 38.8872
rfoot -14.5611 -7.12154
rtoes -0.136644
lfemur -17.0742 4.09296 -17.8489
ltibia 32.9997
lfoot -20.2153 5.02321
ltoes -5.01419
117
root 1.7611 17.8607 -9.05189 9.194 -4.3688 -5.65393
lowerback -3.01563 1.54766 -3.65662
upperback 1.81525 2.11804 3.66033
thorax 3.30033 0.929797 5.98488
lowerneck -14.5406 0.675861 1.21856
upperneck 41.6525 3.72377 -7.05654
head 18.2466 0.724566 -2.84074
rclavicle -9.49197e-015 1.2921e-015
rhumerus -27.088 1.51728 -84.3272
rradius 28.2422
rwrist -6.77943
rhand -19.4172 10.99
rfingers 7.12502
rthumb 6.90245 -18.8775
lclavicle -9.49197e-015 1.2921e-015
lhumerus -26.0621 -2.1127 89.5182
lradius 24.1578
lwrist 0.255682
lhand -8.47725 33.1413
lfingers 7.12502
lthumb 17.4496 62.3781
rfemur -23.0583 -1.02667 21.577
rtibia 39.5757
rfoot -14.3338 -7.412
rtoes -2.3284
lfemur -16.9724 4.17208 -17.9918
ltibia 32.9724
lfoot -20.2124 4.89629
ltoes -5.50971
118
root 1.77024 17.8569 -9.04463 9.1578 -4.31908 -5.5026
lowerback -3.07306 1.5649 -3.80535
upperback 1.95993 2.14982 3.60829
thorax 3.47623 0.934172 6.02318
lowerneck -14.6016 0.668761 1.09936
upperneck 41.6909 3.72902 -6.98048
head 18.2821 0.717518 -2.78379
rclavicle -2.14439e-014 -3.77691e-015
rhumerus -26.9214 1.51838 -84.2848
rradius 28.3661
rwrist -6.82851
rhand -19.4278 10.3849
rfingers 7.12502
rthumb 6.89221 -19.4829
lclavicle -2.14439e-014 -3.77691e-015
lhumerus -25.856 -2.09553 89.4483
lradius 24.0881
lwrist 0.376035
lhand -8.62506 32.625
lfingers 7.12502
lthumb 17.3073 61.8744
rfemur -23.4171 -1.05599 21.3844
rtibia 40.2833
rfoot -14.0921 -7.57963
rtoes -3.84633
lfemur -16.8913 4.11948 -18.1878
ltibia 32.934
lfoot -20.2921 4.78744
ltoes -4.70798
119
root 1.7807 17.8527 -9.03773 9.14167 -4.2646 -5.39531
lowerback -3.03556 1.58335 -3.90772
upperback 2.01866 2.17926 3.57046
thorax 3.51027 0.944468 6.0435
lowerneck -14.5556 0.633934 1.03806
upperneck 41.713 3.69981 -6.9813
head 18.2797 0.697289 -2.77901
rclavicle -1.6201e-014 -2.36554e-014
rhumerus -26.8953 1.52674 -84.2418
rradius 28.4551
rwrist -6.89429
rhand -19.4066 9.9971
rfingers 7.12502
rthumb 6.91271 -19.87
lclavicle -1.6201e-014 -2.36554e-014
lhumerus -25.845 -1.99525 89.3485
lradius 24.1194
lwrist 0.337133
lhand -8.51345 32.4505
lfingers 7.12502
lthumb 17.4147 61.6904
rfemur -23.7922 -1.03452 21.2191
rtibia 41.0066
rfoot -14.0198 -7.55757
rtoes -2.88391
lfemur -16.8636 4.00603 -18.3363
ltibia 32.908
lfoot -20.3363 4.687
ltoes -3.91675
120
root 1.79299 17.8513 -9.031 9.11633 -4.23015 -5.3959
lowerback -2.85672 1.6342 -3.9098
upperback 2.01189 2.24324 3.56053
thorax 3.39379 0.980414 6.02967
lowerneck -14.4423 0.573684 1.06681
upperneck 41.7368 3.63475 -7.06711
head 18.2618 0.667019 -2.83774
rclavicle -2.13942e-014 4.87022e-015
rhumerus -26.946 1.53156 -84.1922
rradius 28.4727
rwrist -6.96858
rhand -19.4725 10.123
rfingers 7.12502
rthumb 6.84909 -19.7463
lclavicle -2.13942e-014 4.87022e-015
lhumerus -25.8911 -1.87333 89.219
lradius 24.0092
lwrist 0.303009
lhand -8.52041 32.0575
lfingers 7.12502
lthumb 17.408 61.298
rfemur -24.1518 -0.961074 21.1623
rtibia 41.7364
rfoot -13.8403 -7.42078
rtoes -1.19199
lfemur -16.8573 3.94515 -18.3717
ltibia 32.9202
lfoot -20.3249 4.66111
ltoes -3.94208
121
root 1.80651 17.8483 -9.02496 9.12207 -4.25541 -5.42349
lowerback -2.67678 1.67699 -3.8624
upperback 2.02832 2.29356 3.56492
thorax 3.30391 1.00914 6.00245
lowerneck -14.4805 0.56438 1.06344
upperneck 41.7951 3.66789 -7.15824
head 18.3147 0.667231 -2.87849
rclavicle 2.60905e-015 -1.80894e-014
rhumerus -26.9306 1.69044 -84.1618
rradius 28.5656
rwrist -7.15964
rhand -19.4355 10.1468
rfingers 7.12502
rthumb 6.88472 -19.7212
lclavicle 2.60905e-015 -1.80894e-014
lhumerus -25.9075 -1.93482 89.2487
lradius 24.2276
lwrist 0.574784
lhand -8.45429 32.4653
lfingers 7.12502
lthumb 17.4717 61.7001
rfemur -24.5638 -0.842312 21.1217
rtibia 42.4753
rfoot -13.5453 -7.28181
rtoes 0.0563988
lfemur -16.8742 3.9389 -18.4028
ltibia 32.9721
lfoot -20.3487 4.73026
ltoes -4.23948
